<?xml version="1.0" encoding="UTF-8" standalone="no"?>
<!DOCTYPE svg PUBLIC "-//W3C//DTD SVG 1.1//EN"
 "http://www.w3.org/Graphics/SVG/1.1/DTD/svg11.dtd">
<!-- Generated by graphviz version 2.43.0 (0)
 -->
<!-- Title: G Pages: 1 -->
<svg width="3595pt" height="1013pt"
 viewBox="0.00 0.00 3595.00 1013.00" xmlns="http://www.w3.org/2000/svg" xmlns:xlink="http://www.w3.org/1999/xlink">
<g id="graph0" class="graph" transform="scale(1 1) rotate(0) translate(4 1009)">
<title>G</title>
<polygon fill="white" stroke="transparent" points="-4,4 -4,-1009 3591,-1009 3591,4 -4,4"/>
<!-- half -->
<g id="node1" class="node">
<title>half</title>
<path fill="none" stroke="#4876f0" stroke-width="1.2" d="M197,-36C197,-36 138,-36 138,-36 132,-36 126,-30 126,-24 126,-24 126,-12 126,-12 126,-6 132,0 138,0 138,0 197,0 197,0 203,0 209,-6 209,-12 209,-12 209,-24 209,-24 209,-30 203,-36 197,-36"/>
<text text-anchor="middle" x="167.5" y="-15.5" font-family="monospace" font-size="10.00">half [t=&#45;1]</text>
</g>
<!-- half_f1 -->
<g id="node2" class="node">
<title>half_f1</title>
<path fill="none" stroke="#4876f0" stroke-width="1.2" d="M203,-225C203,-225 132,-225 132,-225 126,-225 120,-219 120,-213 120,-213 120,-201 120,-201 120,-195 126,-189 132,-189 132,-189 203,-189 203,-189 209,-189 215,-195 215,-201 215,-201 215,-213 215,-213 215,-219 209,-225 203,-225"/>
<text text-anchor="middle" x="167.5" y="-204.5" font-family="monospace" font-size="10.00">half_f1 [t=1]</text>
</g>
<!-- n_f2 -->
<g id="node5" class="node">
<title>n_f2</title>
<path fill="none" stroke="#4876f0" stroke-width="1.2" d="M443,-163C443,-163 390,-163 390,-163 384,-163 378,-157 378,-151 378,-151 378,-139 378,-139 378,-133 384,-127 390,-127 390,-127 443,-127 443,-127 449,-127 455,-133 455,-139 455,-139 455,-151 455,-151 455,-157 449,-163 443,-163"/>
<text text-anchor="middle" x="416.5" y="-142.5" font-family="monospace" font-size="10.00">n_f2 [t=3]</text>
</g>
<!-- half_f1&#45;&gt;n_f2 -->
<g id="edge1" class="edge">
<title>half_f1&#45;&gt;n_f2</title>
<path fill="none" stroke="#000000" stroke-width="1.5" d="M215.25,-196.18C248.67,-188.34 294.69,-177.35 335,-167 345.74,-164.24 357.26,-161.17 368.13,-158.21"/>
<polygon fill="#000000" stroke="#000000" stroke-width="1.5" points="369.17,-161.55 377.89,-155.54 367.32,-154.8 369.17,-161.55"/>
</g>
<!-- n -->
<g id="node3" class="node">
<title>n</title>
<path fill="none" stroke="#4876f0" stroke-width="1.2" d="M188,-290C188,-290 147,-290 147,-290 141,-290 135,-284 135,-278 135,-278 135,-266 135,-266 135,-260 141,-254 147,-254 147,-254 188,-254 188,-254 194,-254 200,-260 200,-266 200,-266 200,-278 200,-278 200,-284 194,-290 188,-290"/>
<text text-anchor="middle" x="167.5" y="-269.5" font-family="monospace" font-size="10.00">n [t=&#45;1]</text>
</g>
<!-- n_f1 -->
<g id="node4" class="node">
<title>n_f1</title>
<path fill="none" stroke="#4876f0" stroke-width="1.2" d="M65,-163C65,-163 12,-163 12,-163 6,-163 0,-157 0,-151 0,-151 0,-139 0,-139 0,-133 6,-127 12,-127 12,-127 65,-127 65,-127 71,-127 77,-133 77,-139 77,-139 77,-151 77,-151 77,-157 71,-163 65,-163"/>
<text text-anchor="middle" x="38.5" y="-142.5" font-family="monospace" font-size="10.00">n_f1 [t=0]</text>
</g>
<!-- n_f1&#45;&gt;n_f2 -->
<g id="edge2" class="edge">
<title>n_f1&#45;&gt;n_f2</title>
<path fill="none" stroke="#000000" stroke-width="1.5" d="M77.27,-145C146.11,-145 291.82,-145 367.55,-145"/>
<polygon fill="#000000" stroke="#000000" stroke-width="1.5" points="367.75,-148.5 377.75,-145 367.75,-141.5 367.75,-148.5"/>
</g>
<!-- ni_f1 -->
<g id="node9" class="node">
<title>ni_f1</title>
<path fill="none" stroke="#4876f0" stroke-width="1.2" d="M569,-163C569,-163 510,-163 510,-163 504,-163 498,-157 498,-151 498,-151 498,-139 498,-139 498,-133 504,-127 510,-127 510,-127 569,-127 569,-127 575,-127 581,-133 581,-139 581,-139 581,-151 581,-151 581,-157 575,-163 569,-163"/>
<text text-anchor="middle" x="539.5" y="-142.5" font-family="monospace" font-size="10.00">ni_f1 [t=4]</text>
</g>
<!-- n_f2&#45;&gt;ni_f1 -->
<g id="edge3" class="edge">
<title>n_f2&#45;&gt;ni_f1</title>
<path fill="none" stroke="#000000" stroke-width="1.5" d="M455.12,-145C465.43,-145 476.77,-145 487.68,-145"/>
<polygon fill="#000000" stroke="#000000" stroke-width="1.5" points="487.96,-148.5 497.96,-145 487.96,-141.5 487.96,-148.5"/>
</g>
<!-- n_f3 -->
<g id="node6" class="node">
<title>n_f3</title>
<path fill="none" stroke="#4876f0" stroke-width="1.2" d="M689,-232C689,-232 636,-232 636,-232 630,-232 624,-226 624,-220 624,-220 624,-208 624,-208 624,-202 630,-196 636,-196 636,-196 689,-196 689,-196 695,-196 701,-202 701,-208 701,-208 701,-220 701,-220 701,-226 695,-232 689,-232"/>
<text text-anchor="middle" x="662.5" y="-211.5" font-family="monospace" font-size="10.00">n_f3 [t=5]</text>
</g>
<!-- n_f4 -->
<g id="node7" class="node">
<title>n_f4</title>
<path fill="none" stroke="#4876f0" stroke-width="1.2" d="M941,-276C941,-276 888,-276 888,-276 882,-276 876,-270 876,-264 876,-264 876,-252 876,-252 876,-246 882,-240 888,-240 888,-240 941,-240 941,-240 947,-240 953,-246 953,-252 953,-252 953,-264 953,-264 953,-270 947,-276 941,-276"/>
<text text-anchor="middle" x="914.5" y="-255.5" font-family="monospace" font-size="10.00">n_f4 [t=7]</text>
</g>
<!-- n_f3&#45;&gt;n_f4 -->
<g id="edge4" class="edge">
<title>n_f3&#45;&gt;n_f4</title>
<path fill="none" stroke="#000000" stroke-width="1.5" d="M701.2,-220.63C745.17,-228.37 817.92,-241.18 865.79,-249.6"/>
<polygon fill="#000000" stroke="#000000" stroke-width="1.5" points="865.45,-253.1 875.9,-251.38 866.66,-246.2 865.45,-253.1"/>
</g>
<!-- r_f2 -->
<g id="node17" class="node">
<title>r_f2</title>
<path fill="none" stroke="#4876f0" stroke-width="1.2" d="M1193,-222C1193,-222 1140,-222 1140,-222 1134,-222 1128,-216 1128,-210 1128,-210 1128,-198 1128,-198 1128,-192 1134,-186 1140,-186 1140,-186 1193,-186 1193,-186 1199,-186 1205,-192 1205,-198 1205,-198 1205,-210 1205,-210 1205,-216 1199,-222 1193,-222"/>
<text text-anchor="middle" x="1166.5" y="-201.5" font-family="monospace" font-size="10.00">r_f2 [t=9]</text>
</g>
<!-- n_f4&#45;&gt;r_f2 -->
<g id="edge5" class="edge">
<title>n_f4&#45;&gt;r_f2</title>
<path fill="none" stroke="#000000" stroke-width="1.5" d="M953.2,-249.86C997.26,-240.34 1070.23,-224.58 1118.09,-214.24"/>
<polygon fill="#000000" stroke="#000000" stroke-width="1.5" points="1118.87,-217.65 1127.9,-212.12 1117.39,-210.81 1118.87,-217.65"/>
</g>
<!-- r_f3 -->
<g id="node18" class="node">
<title>r_f3</title>
<path fill="none" stroke="#4876f0" stroke-width="1.2" d="M1319,-281C1319,-281 1260,-281 1260,-281 1254,-281 1248,-275 1248,-269 1248,-269 1248,-257 1248,-257 1248,-251 1254,-245 1260,-245 1260,-245 1319,-245 1319,-245 1325,-245 1331,-251 1331,-257 1331,-257 1331,-269 1331,-269 1331,-275 1325,-281 1319,-281"/>
<text text-anchor="middle" x="1289.5" y="-260.5" font-family="monospace" font-size="10.00">r_f3 [t=10]</text>
</g>
<!-- n_f4&#45;&gt;r_f3 -->
<g id="edge6" class="edge">
<title>n_f4&#45;&gt;r_f3</title>
<path fill="none" stroke="#000000" stroke-width="1.5" d="M953.32,-258.51C1020.71,-259.41 1161.62,-261.3 1237.5,-262.32"/>
<polygon fill="#000000" stroke="#000000" stroke-width="1.5" points="1237.71,-265.82 1247.76,-262.45 1237.81,-258.82 1237.71,-265.82"/>
</g>
<!-- r_f4 -->
<g id="node19" class="node">
<title>r_f4</title>
<path fill="none" stroke="#4876f0" stroke-width="1.2" d="M1445,-340C1445,-340 1386,-340 1386,-340 1380,-340 1374,-334 1374,-328 1374,-328 1374,-316 1374,-316 1374,-310 1380,-304 1386,-304 1386,-304 1445,-304 1445,-304 1451,-304 1457,-310 1457,-316 1457,-316 1457,-328 1457,-328 1457,-334 1451,-340 1445,-340"/>
<text text-anchor="middle" x="1415.5" y="-319.5" font-family="monospace" font-size="10.00">r_f4 [t=11]</text>
</g>
<!-- n_f4&#45;&gt;r_f4 -->
<g id="edge7" class="edge">
<title>n_f4&#45;&gt;r_f4</title>
<path fill="none" stroke="#000000" stroke-width="1.5" d="M953.24,-270.31C966.62,-274.26 981.86,-278.31 996,-281 1127.1,-305.94 1284.35,-316.17 1363.56,-319.98"/>
<polygon fill="#000000" stroke="#000000" stroke-width="1.5" points="1363.6,-323.48 1373.75,-320.45 1363.93,-316.49 1363.6,-323.48"/>
</g>
<!-- ni -->
<g id="node8" class="node">
<title>ni</title>
<path fill="none" stroke="#4876f0" stroke-width="1.2" d="M191,-355C191,-355 144,-355 144,-355 138,-355 132,-349 132,-343 132,-343 132,-331 132,-331 132,-325 138,-319 144,-319 144,-319 191,-319 191,-319 197,-319 203,-325 203,-331 203,-331 203,-343 203,-343 203,-349 197,-355 191,-355"/>
<text text-anchor="middle" x="167.5" y="-334.5" font-family="monospace" font-size="10.00">ni [t=&#45;1]</text>
</g>
<!-- ni_f1&#45;&gt;n_f3 -->
<g id="edge8" class="edge">
<title>ni_f1&#45;&gt;n_f3</title>
<path fill="none" stroke="#000000" stroke-width="1.5" d="M572.29,-163.13C587.16,-171.61 605.04,-181.8 620.87,-190.83"/>
<polygon fill="#000000" stroke="#000000" stroke-width="1.5" points="619.5,-194.08 629.92,-195.99 622.97,-188 619.5,-194.08"/>
</g>
<!-- odd_f1 -->
<g id="node11" class="node">
<title>odd_f1</title>
<path fill="none" stroke="#4876f0" stroke-width="1.2" d="M821,-163C821,-163 756,-163 756,-163 750,-163 744,-157 744,-151 744,-151 744,-139 744,-139 744,-133 750,-127 756,-127 756,-127 821,-127 821,-127 827,-127 833,-133 833,-139 833,-139 833,-151 833,-151 833,-157 827,-163 821,-163"/>
<text text-anchor="middle" x="788.5" y="-142.5" font-family="monospace" font-size="10.00">odd_f1 [t=6]</text>
</g>
<!-- ni_f1&#45;&gt;odd_f1 -->
<g id="edge9" class="edge">
<title>ni_f1&#45;&gt;odd_f1</title>
<path fill="none" stroke="#000000" stroke-width="1.5" d="M581.01,-145C622.62,-145 687.61,-145 733.56,-145"/>
<polygon fill="#000000" stroke="#000000" stroke-width="1.5" points="733.63,-148.5 743.63,-145 733.63,-141.5 733.63,-148.5"/>
</g>
<!-- odd -->
<g id="node10" class="node">
<title>odd</title>
<path fill="none" stroke="#4876f0" stroke-width="1.2" d="M194,-420C194,-420 141,-420 141,-420 135,-420 129,-414 129,-408 129,-408 129,-396 129,-396 129,-390 135,-384 141,-384 141,-384 194,-384 194,-384 200,-384 206,-390 206,-396 206,-396 206,-408 206,-408 206,-414 200,-420 194,-420"/>
<text text-anchor="middle" x="167.5" y="-399.5" font-family="monospace" font-size="10.00">odd [t=&#45;1]</text>
</g>
<!-- odd_f2 -->
<g id="node12" class="node">
<title>odd_f2</title>
<path fill="none" stroke="#4876f0" stroke-width="1.2" d="M1073,-163C1073,-163 1008,-163 1008,-163 1002,-163 996,-157 996,-151 996,-151 996,-139 996,-139 996,-133 1002,-127 1008,-127 1008,-127 1073,-127 1073,-127 1079,-127 1085,-133 1085,-139 1085,-139 1085,-151 1085,-151 1085,-157 1079,-163 1073,-163"/>
<text text-anchor="middle" x="1040.5" y="-142.5" font-family="monospace" font-size="10.00">odd_f2 [t=8]</text>
</g>
<!-- odd_f1&#45;&gt;odd_f2 -->
<g id="edge10" class="edge">
<title>odd_f1&#45;&gt;odd_f2</title>
<path fill="none" stroke="#000000" stroke-width="1.5" d="M833.05,-145C875.45,-145 939.99,-145 985.61,-145"/>
<polygon fill="#000000" stroke="#000000" stroke-width="1.5" points="985.61,-148.5 995.61,-145 985.61,-141.5 985.61,-148.5"/>
</g>
<!-- tmp_f2 -->
<g id="node31" class="node">
<title>tmp_f2</title>
<path fill="none" stroke="#4876f0" stroke-width="1.2" d="M3437,-191C3437,-191 3366,-191 3366,-191 3360,-191 3354,-185 3354,-179 3354,-179 3354,-167 3354,-167 3354,-161 3360,-155 3366,-155 3366,-155 3437,-155 3437,-155 3443,-155 3449,-161 3449,-167 3449,-167 3449,-179 3449,-179 3449,-185 3443,-191 3437,-191"/>
<text text-anchor="middle" x="3401.5" y="-170.5" font-family="monospace" font-size="10.00">tmp_f2 [t=26]</text>
</g>
<!-- odd_f2&#45;&gt;tmp_f2 -->
<g id="edge11" class="edge">
<title>odd_f2&#45;&gt;tmp_f2</title>
<path fill="none" stroke="#000000" stroke-width="1.5" d="M1085.22,-144.15C1134.59,-143.26 1217.31,-142 1288.5,-142 1288.5,-142 1288.5,-142 3132.5,-142 3205.76,-142 3289.55,-153.57 3343.65,-162.58"/>
<polygon fill="#000000" stroke="#000000" stroke-width="1.5" points="3343.29,-166.07 3353.73,-164.28 3344.45,-159.16 3343.29,-166.07"/>
</g>
<!-- r -->
<g id="node13" class="node">
<title>r</title>
<path fill="none" stroke="#4876f0" stroke-width="1.2" d="M188,-485C188,-485 147,-485 147,-485 141,-485 135,-479 135,-473 135,-473 135,-461 135,-461 135,-455 141,-449 147,-449 147,-449 188,-449 188,-449 194,-449 200,-455 200,-461 200,-461 200,-473 200,-473 200,-479 194,-485 188,-485"/>
<text text-anchor="middle" x="167.5" y="-464.5" font-family="monospace" font-size="10.00">r [t=&#45;1]</text>
</g>
<!-- r2 -->
<g id="node14" class="node">
<title>r2</title>
<path fill="none" stroke="#4876f0" stroke-width="1.2" d="M191,-550C191,-550 144,-550 144,-550 138,-550 132,-544 132,-538 132,-538 132,-526 132,-526 132,-520 138,-514 144,-514 144,-514 191,-514 191,-514 197,-514 203,-520 203,-526 203,-526 203,-538 203,-538 203,-544 197,-550 191,-550"/>
<text text-anchor="middle" x="167.5" y="-529.5" font-family="monospace" font-size="10.00">r2 [t=&#45;1]</text>
</g>
<!-- r2_f1 -->
<g id="node15" class="node">
<title>r2_f1</title>
<path fill="none" stroke="#4876f0" stroke-width="1.2" d="M1577,-340C1577,-340 1512,-340 1512,-340 1506,-340 1500,-334 1500,-328 1500,-328 1500,-316 1500,-316 1500,-310 1506,-304 1512,-304 1512,-304 1577,-304 1577,-304 1583,-304 1589,-310 1589,-316 1589,-316 1589,-328 1589,-328 1589,-334 1583,-340 1577,-340"/>
<text text-anchor="middle" x="1544.5" y="-319.5" font-family="monospace" font-size="10.00">r2_f1 [t=12]</text>
</g>
<!-- y_f1 -->
<g id="node35" class="node">
<title>y_f1</title>
<path fill="none" stroke="#4876f0" stroke-width="1.2" d="M2279,-582C2279,-582 2220,-582 2220,-582 2214,-582 2208,-576 2208,-570 2208,-570 2208,-558 2208,-558 2208,-552 2214,-546 2220,-546 2220,-546 2279,-546 2279,-546 2285,-546 2291,-552 2291,-558 2291,-558 2291,-570 2291,-570 2291,-576 2285,-582 2279,-582"/>
<text text-anchor="middle" x="2249.5" y="-561.5" font-family="monospace" font-size="10.00">y_f1 [t=17]</text>
</g>
<!-- r2_f1&#45;&gt;y_f1 -->
<g id="edge12" class="edge">
<title>r2_f1&#45;&gt;y_f1</title>
<path fill="none" stroke="#000000" stroke-width="1.5" d="M1552.86,-340.01C1565.4,-368.88 1593.37,-425.92 1632,-462 1703.05,-528.35 1728.28,-564 1825.5,-564 1825.5,-564 1825.5,-564 1971.5,-564 2050.34,-564 2141.79,-564 2197.38,-564"/>
<polygon fill="#000000" stroke="#000000" stroke-width="1.5" points="2197.67,-567.5 2207.67,-564 2197.67,-560.5 2197.67,-567.5"/>
</g>
<!-- y_f3 -->
<g id="node37" class="node">
<title>y_f3</title>
<path fill="none" stroke="#4876f0" stroke-width="1.2" d="M2531,-461C2531,-461 2472,-461 2472,-461 2466,-461 2460,-455 2460,-449 2460,-449 2460,-437 2460,-437 2460,-431 2466,-425 2472,-425 2472,-425 2531,-425 2531,-425 2537,-425 2543,-431 2543,-437 2543,-437 2543,-449 2543,-449 2543,-455 2537,-461 2531,-461"/>
<text text-anchor="middle" x="2501.5" y="-440.5" font-family="monospace" font-size="10.00">y_f3 [t=19]</text>
</g>
<!-- r2_f1&#45;&gt;y_f3 -->
<g id="edge13" class="edge">
<title>r2_f1&#45;&gt;y_f3</title>
<path fill="none" stroke="#000000" stroke-width="1.5" d="M1589.01,-337.82C1683.26,-370.62 1913.87,-443 2113.5,-443 2113.5,-443 2113.5,-443 2250.5,-443 2319.53,-443 2399.28,-443 2449.79,-443"/>
<polygon fill="#000000" stroke="#000000" stroke-width="1.5" points="2449.8,-446.5 2459.8,-443 2449.8,-439.5 2449.8,-446.5"/>
</g>
<!-- y_f5 -->
<g id="node39" class="node">
<title>y_f5</title>
<path fill="none" stroke="#4876f0" stroke-width="1.2" d="M2783,-430C2783,-430 2724,-430 2724,-430 2718,-430 2712,-424 2712,-418 2712,-418 2712,-406 2712,-406 2712,-400 2718,-394 2724,-394 2724,-394 2783,-394 2783,-394 2789,-394 2795,-400 2795,-406 2795,-406 2795,-418 2795,-418 2795,-424 2789,-430 2783,-430"/>
<text text-anchor="middle" x="2753.5" y="-409.5" font-family="monospace" font-size="10.00">y_f5 [t=21]</text>
</g>
<!-- r2_f1&#45;&gt;y_f5 -->
<g id="edge14" class="edge">
<title>r2_f1&#45;&gt;y_f5</title>
<path fill="none" stroke="#000000" stroke-width="1.5" d="M1589.15,-321.24C1644.23,-320.35 1741.88,-319 1825.5,-319 1825.5,-319 1825.5,-319 2502.5,-319 2582.33,-319 2668.01,-361.17 2715.46,-388.72"/>
<polygon fill="#000000" stroke="#000000" stroke-width="1.5" points="2713.76,-391.78 2724.15,-393.85 2717.32,-385.75 2713.76,-391.78"/>
</g>
<!-- y_f8 -->
<g id="node42" class="node">
<title>y_f8</title>
<path fill="none" stroke="#4876f0" stroke-width="1.2" d="M3161,-264C3161,-264 3102,-264 3102,-264 3096,-264 3090,-258 3090,-252 3090,-252 3090,-240 3090,-240 3090,-234 3096,-228 3102,-228 3102,-228 3161,-228 3161,-228 3167,-228 3173,-234 3173,-240 3173,-240 3173,-252 3173,-252 3173,-258 3167,-264 3161,-264"/>
<text text-anchor="middle" x="3131.5" y="-243.5" font-family="monospace" font-size="10.00">y_f8 [t=24]</text>
</g>
<!-- r2_f1&#45;&gt;y_f8 -->
<g id="edge15" class="edge">
<title>r2_f1&#45;&gt;y_f8</title>
<path fill="none" stroke="#000000" stroke-width="1.5" d="M1589.45,-306.03C1644.03,-287.66 1740.36,-260 1825.5,-260 1825.5,-260 1825.5,-260 2880.5,-260 2949.64,-260 3029.36,-254.6 3079.83,-250.5"/>
<polygon fill="#000000" stroke="#000000" stroke-width="1.5" points="3080.16,-253.99 3089.84,-249.68 3079.58,-247.01 3080.16,-253.99"/>
</g>
<!-- r_f1 -->
<g id="node16" class="node">
<title>r_f1</title>
<path fill="none" stroke="#4876f0" stroke-width="1.2" d="M323,-101C323,-101 270,-101 270,-101 264,-101 258,-95 258,-89 258,-89 258,-77 258,-77 258,-71 264,-65 270,-65 270,-65 323,-65 323,-65 329,-65 335,-71 335,-77 335,-77 335,-89 335,-89 335,-95 329,-101 323,-101"/>
<text text-anchor="middle" x="296.5" y="-80.5" font-family="monospace" font-size="10.00">r_f1 [t=2]</text>
</g>
<!-- r_f1&#45;&gt;n_f2 -->
<g id="edge16" class="edge">
<title>r_f1&#45;&gt;n_f2</title>
<path fill="none" stroke="#000000" stroke-width="1.5" d="M331.95,-101.1C344.55,-107.72 358.97,-115.3 372.24,-122.27"/>
<polygon fill="#000000" stroke="#000000" stroke-width="1.5" points="370.73,-125.43 381.21,-126.99 373.99,-119.24 370.73,-125.43"/>
</g>
<!-- r_f1&#45;&gt;r_f2 -->
<g id="edge17" class="edge">
<title>r_f1&#45;&gt;r_f2</title>
<path fill="none" stroke="#000000" stroke-width="1.5" d="M335.07,-83C382.48,-83 466.53,-83 538.5,-83 538.5,-83 538.5,-83 915.5,-83 992,-83 1018.26,-75.59 1085,-113 1112.21,-128.25 1134.84,-156.25 1149.11,-177.17"/>
<polygon fill="#000000" stroke="#000000" stroke-width="1.5" points="1146.27,-179.23 1154.7,-185.65 1152.12,-175.38 1146.27,-179.23"/>
</g>
<!-- r_f2&#45;&gt;r_f3 -->
<g id="edge18" class="edge">
<title>r_f2&#45;&gt;r_f3</title>
<path fill="none" stroke="#000000" stroke-width="1.5" d="M1204.46,-222.02C1216.31,-227.8 1229.59,-234.28 1242.03,-240.34"/>
<polygon fill="#000000" stroke="#000000" stroke-width="1.5" points="1240.83,-243.65 1251.35,-244.88 1243.89,-237.36 1240.83,-243.65"/>
</g>
<!-- r_f3&#45;&gt;r_f4 -->
<g id="edge19" class="edge">
<title>r_f3&#45;&gt;r_f4</title>
<path fill="none" stroke="#000000" stroke-width="1.5" d="M1328.38,-281.02C1340.64,-286.86 1354.4,-293.4 1367.26,-299.52"/>
<polygon fill="#000000" stroke="#000000" stroke-width="1.5" points="1365.89,-302.75 1376.43,-303.88 1368.9,-296.43 1365.89,-302.75"/>
</g>
<!-- r_f4&#45;&gt;r2_f1 -->
<g id="edge20" class="edge">
<title>r_f4&#45;&gt;r2_f1</title>
<path fill="none" stroke="#000000" stroke-width="1.5" d="M1457.03,-322C1467.37,-322 1478.66,-322 1489.55,-322"/>
<polygon fill="#000000" stroke="#000000" stroke-width="1.5" points="1489.84,-325.5 1499.84,-322 1489.84,-318.5 1489.84,-325.5"/>
</g>
<!-- y_f7 -->
<g id="node41" class="node">
<title>y_f7</title>
<path fill="none" stroke="#4876f0" stroke-width="1.2" d="M3035,-582C3035,-582 2976,-582 2976,-582 2970,-582 2964,-576 2964,-570 2964,-570 2964,-558 2964,-558 2964,-552 2970,-546 2976,-546 2976,-546 3035,-546 3035,-546 3041,-546 3047,-552 3047,-558 3047,-558 3047,-570 3047,-570 3047,-576 3041,-582 3035,-582"/>
<text text-anchor="middle" x="3005.5" y="-561.5" font-family="monospace" font-size="10.00">y_f7 [t=23]</text>
</g>
<!-- r_f4&#45;&gt;y_f7 -->
<g id="edge21" class="edge">
<title>r_f4&#45;&gt;y_f7</title>
<path fill="none" stroke="#000000" stroke-width="1.5" d="M1418.76,-340.26C1429.92,-421.61 1486.73,-747 1681.5,-747 1681.5,-747 1681.5,-747 2754.5,-747 2859.24,-747 2949.29,-641.11 2986.4,-590.43"/>
<polygon fill="#000000" stroke="#000000" stroke-width="1.5" points="2989.3,-592.38 2992.3,-582.22 2983.62,-588.29 2989.3,-592.38"/>
</g>
<!-- r_f4&#45;&gt;y_f8 -->
<g id="edge22" class="edge">
<title>r_f4&#45;&gt;y_f8</title>
<path fill="none" stroke="#000000" stroke-width="1.5" d="M1438.67,-303.89C1482.31,-270.13 1583.64,-201 1681.5,-201 1681.5,-201 1681.5,-201 2880.5,-201 2950.43,-201 3029.65,-218.27 3079.82,-231.41"/>
<polygon fill="#000000" stroke="#000000" stroke-width="1.5" points="3079.2,-234.86 3089.76,-234.06 3081,-228.1 3079.2,-234.86"/>
</g>
<!-- return -->
<g id="node20" class="node">
<title>return</title>
<path fill="none" stroke="#4876f0" stroke-width="1.2" d="M3575,-191C3575,-191 3504,-191 3504,-191 3498,-191 3492,-185 3492,-179 3492,-179 3492,-167 3492,-167 3492,-161 3498,-155 3504,-155 3504,-155 3575,-155 3575,-155 3581,-155 3587,-161 3587,-167 3587,-167 3587,-179 3587,-179 3587,-185 3581,-191 3575,-191"/>
<text text-anchor="middle" x="3539.5" y="-170.5" font-family="monospace" font-size="10.00">return [t=27]</text>
</g>
<!-- s_c3 -->
<g id="node21" class="node">
<title>s_c3</title>
<path fill="none" stroke="#4876f0" stroke-width="1.2" d="M197,-615C197,-615 138,-615 138,-615 132,-615 126,-609 126,-603 126,-603 126,-591 126,-591 126,-585 132,-579 138,-579 138,-579 197,-579 197,-579 203,-579 209,-585 209,-591 209,-591 209,-603 209,-603 209,-609 203,-615 197,-615"/>
<text text-anchor="middle" x="167.5" y="-594.5" font-family="monospace" font-size="10.00">s_c3 [t=&#45;1]</text>
</g>
<!-- s_c3_f1 -->
<g id="node22" class="node">
<title>s_c3_f1</title>
<path fill="none" stroke="#4876f0" stroke-width="1.2" d="M2153,-703C2153,-703 2076,-703 2076,-703 2070,-703 2064,-697 2064,-691 2064,-691 2064,-679 2064,-679 2064,-673 2070,-667 2076,-667 2076,-667 2153,-667 2153,-667 2159,-667 2165,-673 2165,-679 2165,-679 2165,-691 2165,-691 2165,-697 2159,-703 2153,-703"/>
<text text-anchor="middle" x="2114.5" y="-682.5" font-family="monospace" font-size="10.00">s_c3_f1 [t=16]</text>
</g>
<!-- y_f6 -->
<g id="node40" class="node">
<title>y_f6</title>
<path fill="none" stroke="#4876f0" stroke-width="1.2" d="M2909,-582C2909,-582 2850,-582 2850,-582 2844,-582 2838,-576 2838,-570 2838,-570 2838,-558 2838,-558 2838,-552 2844,-546 2850,-546 2850,-546 2909,-546 2909,-546 2915,-546 2921,-552 2921,-558 2921,-558 2921,-570 2921,-570 2921,-576 2915,-582 2909,-582"/>
<text text-anchor="middle" x="2879.5" y="-561.5" font-family="monospace" font-size="10.00">y_f6 [t=22]</text>
</g>
<!-- s_c3_f1&#45;&gt;y_f6 -->
<g id="edge23" class="edge">
<title>s_c3_f1&#45;&gt;y_f6</title>
<path fill="none" stroke="#000000" stroke-width="1.5" d="M2165.15,-685C2217.29,-685 2301.66,-685 2374.5,-685 2374.5,-685 2374.5,-685 2628.5,-685 2716.15,-685 2805.38,-623.99 2849.75,-588.61"/>
<polygon fill="#000000" stroke="#000000" stroke-width="1.5" points="2852.2,-591.13 2857.76,-582.11 2847.79,-585.7 2852.2,-591.13"/>
</g>
<!-- s_c5 -->
<g id="node23" class="node">
<title>s_c5</title>
<path fill="none" stroke="#4876f0" stroke-width="1.2" d="M197,-680C197,-680 138,-680 138,-680 132,-680 126,-674 126,-668 126,-668 126,-656 126,-656 126,-650 132,-644 138,-644 138,-644 197,-644 197,-644 203,-644 209,-650 209,-656 209,-656 209,-668 209,-668 209,-674 203,-680 197,-680"/>
<text text-anchor="middle" x="167.5" y="-659.5" font-family="monospace" font-size="10.00">s_c5 [t=&#45;1]</text>
</g>
<!-- s_c5_f1 -->
<g id="node24" class="node">
<title>s_c5_f1</title>
<path fill="none" stroke="#4876f0" stroke-width="1.2" d="M2009,-399C2009,-399 1932,-399 1932,-399 1926,-399 1920,-393 1920,-387 1920,-387 1920,-375 1920,-375 1920,-369 1926,-363 1932,-363 1932,-363 2009,-363 2009,-363 2015,-363 2021,-369 2021,-375 2021,-375 2021,-387 2021,-387 2021,-393 2015,-399 2009,-399"/>
<text text-anchor="middle" x="1970.5" y="-378.5" font-family="monospace" font-size="10.00">s_c5_f1 [t=15]</text>
</g>
<!-- y_f4 -->
<g id="node38" class="node">
<title>y_f4</title>
<path fill="none" stroke="#4876f0" stroke-width="1.2" d="M2657,-430C2657,-430 2598,-430 2598,-430 2592,-430 2586,-424 2586,-418 2586,-418 2586,-406 2586,-406 2586,-400 2592,-394 2598,-394 2598,-394 2657,-394 2657,-394 2663,-394 2669,-400 2669,-406 2669,-406 2669,-418 2669,-418 2669,-424 2663,-430 2657,-430"/>
<text text-anchor="middle" x="2627.5" y="-409.5" font-family="monospace" font-size="10.00">y_f4 [t=20]</text>
</g>
<!-- s_c5_f1&#45;&gt;y_f4 -->
<g id="edge24" class="edge">
<title>s_c5_f1&#45;&gt;y_f4</title>
<path fill="none" stroke="#000000" stroke-width="1.5" d="M2021.04,-381C2076.46,-381 2168.91,-381 2248.5,-381 2248.5,-381 2248.5,-381 2376.5,-381 2446.06,-381 2525.68,-392.96 2576.01,-402.03"/>
<polygon fill="#000000" stroke="#000000" stroke-width="1.5" points="2575.52,-405.5 2585.99,-403.86 2576.78,-398.61 2575.52,-405.5"/>
</g>
<!-- s_c7 -->
<g id="node25" class="node">
<title>s_c7</title>
<path fill="none" stroke="#4876f0" stroke-width="1.2" d="M197,-745C197,-745 138,-745 138,-745 132,-745 126,-739 126,-733 126,-733 126,-721 126,-721 126,-715 132,-709 138,-709 138,-709 197,-709 197,-709 203,-709 209,-715 209,-721 209,-721 209,-733 209,-733 209,-739 203,-745 197,-745"/>
<text text-anchor="middle" x="167.5" y="-724.5" font-family="monospace" font-size="10.00">s_c7 [t=&#45;1]</text>
</g>
<!-- s_c7_f1 -->
<g id="node26" class="node">
<title>s_c7_f1</title>
<path fill="none" stroke="#4876f0" stroke-width="1.2" d="M1865,-520C1865,-520 1788,-520 1788,-520 1782,-520 1776,-514 1776,-508 1776,-508 1776,-496 1776,-496 1776,-490 1782,-484 1788,-484 1788,-484 1865,-484 1865,-484 1871,-484 1877,-490 1877,-496 1877,-496 1877,-508 1877,-508 1877,-514 1871,-520 1865,-520"/>
<text text-anchor="middle" x="1826.5" y="-499.5" font-family="monospace" font-size="10.00">s_c7_f1 [t=14]</text>
</g>
<!-- y_f2 -->
<g id="node36" class="node">
<title>y_f2</title>
<path fill="none" stroke="#4876f0" stroke-width="1.2" d="M2405,-523C2405,-523 2346,-523 2346,-523 2340,-523 2334,-517 2334,-511 2334,-511 2334,-499 2334,-499 2334,-493 2340,-487 2346,-487 2346,-487 2405,-487 2405,-487 2411,-487 2417,-493 2417,-499 2417,-499 2417,-511 2417,-511 2417,-517 2411,-523 2405,-523"/>
<text text-anchor="middle" x="2375.5" y="-502.5" font-family="monospace" font-size="10.00">y_f2 [t=18]</text>
</g>
<!-- s_c7_f1&#45;&gt;y_f2 -->
<g id="edge25" class="edge">
<title>s_c7_f1&#45;&gt;y_f2</title>
<path fill="none" stroke="#000000" stroke-width="1.5" d="M1877.01,-502.27C1980.49,-502.84 2218.75,-504.15 2323.51,-504.72"/>
<polygon fill="#000000" stroke="#000000" stroke-width="1.5" points="2323.8,-508.22 2333.82,-504.78 2323.84,-501.22 2323.8,-508.22"/>
</g>
<!-- s_c9 -->
<g id="node27" class="node">
<title>s_c9</title>
<path fill="none" stroke="#4876f0" stroke-width="1.2" d="M197,-810C197,-810 138,-810 138,-810 132,-810 126,-804 126,-798 126,-798 126,-786 126,-786 126,-780 132,-774 138,-774 138,-774 197,-774 197,-774 203,-774 209,-780 209,-786 209,-786 209,-798 209,-798 209,-804 203,-810 197,-810"/>
<text text-anchor="middle" x="167.5" y="-789.5" font-family="monospace" font-size="10.00">s_c9 [t=&#45;1]</text>
</g>
<!-- s_c9_f1 -->
<g id="node28" class="node">
<title>s_c9_f1</title>
<path fill="none" stroke="#4876f0" stroke-width="1.2" d="M1721,-644C1721,-644 1644,-644 1644,-644 1638,-644 1632,-638 1632,-632 1632,-632 1632,-620 1632,-620 1632,-614 1638,-608 1644,-608 1644,-608 1721,-608 1721,-608 1727,-608 1733,-614 1733,-620 1733,-620 1733,-632 1733,-632 1733,-638 1727,-644 1721,-644"/>
<text text-anchor="middle" x="1682.5" y="-623.5" font-family="monospace" font-size="10.00">s_c9_f1 [t=13]</text>
</g>
<!-- s_c9_f1&#45;&gt;y_f1 -->
<g id="edge26" class="edge">
<title>s_c9_f1&#45;&gt;y_f1</title>
<path fill="none" stroke="#000000" stroke-width="1.5" d="M1733.07,-624.73C1820.77,-621.86 2008.76,-612.86 2165,-586 2175.75,-584.15 2187.13,-581.58 2197.91,-578.84"/>
<polygon fill="#000000" stroke="#000000" stroke-width="1.5" points="2198.83,-582.22 2207.62,-576.3 2197.06,-575.45 2198.83,-582.22"/>
</g>
<!-- tmp -->
<g id="node29" class="node">
<title>tmp</title>
<path fill="none" stroke="#4876f0" stroke-width="1.2" d="M194,-875C194,-875 141,-875 141,-875 135,-875 129,-869 129,-863 129,-863 129,-851 129,-851 129,-845 135,-839 141,-839 141,-839 194,-839 194,-839 200,-839 206,-845 206,-851 206,-851 206,-863 206,-863 206,-869 200,-875 194,-875"/>
<text text-anchor="middle" x="167.5" y="-854.5" font-family="monospace" font-size="10.00">tmp [t=&#45;1]</text>
</g>
<!-- tmp_f1 -->
<g id="node30" class="node">
<title>tmp_f1</title>
<path fill="none" stroke="#4876f0" stroke-width="1.2" d="M3299,-250C3299,-250 3228,-250 3228,-250 3222,-250 3216,-244 3216,-238 3216,-238 3216,-226 3216,-226 3216,-220 3222,-214 3228,-214 3228,-214 3299,-214 3299,-214 3305,-214 3311,-220 3311,-226 3311,-226 3311,-238 3311,-238 3311,-244 3305,-250 3299,-250"/>
<text text-anchor="middle" x="3263.5" y="-229.5" font-family="monospace" font-size="10.00">tmp_f1 [t=25]</text>
</g>
<!-- tmp_f1&#45;&gt;tmp_f2 -->
<g id="edge27" class="edge">
<title>tmp_f1&#45;&gt;tmp_f2</title>
<path fill="none" stroke="#000000" stroke-width="1.5" d="M3306.04,-213.98C3319.76,-208.03 3335.17,-201.34 3349.51,-195.12"/>
<polygon fill="#000000" stroke="#000000" stroke-width="1.5" points="3350.96,-198.31 3358.74,-191.12 3348.18,-191.88 3350.96,-198.31"/>
</g>
<!-- tmp_f2&#45;&gt;return -->
<g id="edge28" class="edge">
<title>tmp_f2&#45;&gt;return</title>
<path fill="none" stroke="#000000" stroke-width="1.5" d="M3449.3,-173C3459.67,-173 3470.76,-173 3481.48,-173"/>
<polygon fill="#000000" stroke="#000000" stroke-width="1.5" points="3481.61,-176.5 3491.61,-173 3481.61,-169.5 3481.61,-176.5"/>
</g>
<!-- v -->
<g id="node32" class="node">
<title>v</title>
<path fill="none" stroke="#4876f0" stroke-width="1.2" d="M188,-101C188,-101 147,-101 147,-101 141,-101 135,-95 135,-89 135,-89 135,-77 135,-77 135,-71 141,-65 147,-65 147,-65 188,-65 188,-65 194,-65 200,-71 200,-77 200,-77 200,-89 200,-89 200,-95 194,-101 188,-101"/>
<text text-anchor="middle" x="167.5" y="-80.5" font-family="monospace" font-size="10.00">v [t=&#45;1]</text>
</g>
<!-- v&#45;&gt;r_f1 -->
<g id="edge29" class="edge">
<title>v&#45;&gt;r_f1</title>
<path fill="none" stroke="#000000" stroke-width="1.5" d="M200.22,-83C214.56,-83 231.82,-83 247.69,-83"/>
<polygon fill="#000000" stroke="#000000" stroke-width="1.5" points="247.87,-86.5 257.87,-83 247.87,-79.5 247.87,-86.5"/>
</g>
<!-- vl -->
<g id="node33" class="node">
<title>vl</title>
<path fill="none" stroke="#4876f0" stroke-width="1.2" d="M191,-940C191,-940 144,-940 144,-940 138,-940 132,-934 132,-928 132,-928 132,-916 132,-916 132,-910 138,-904 144,-904 144,-904 191,-904 191,-904 197,-904 203,-910 203,-916 203,-916 203,-928 203,-928 203,-934 197,-940 191,-940"/>
<text text-anchor="middle" x="167.5" y="-919.5" font-family="monospace" font-size="10.00">vl [t=&#45;1]</text>
</g>
<!-- y -->
<g id="node34" class="node">
<title>y</title>
<path fill="none" stroke="#4876f0" stroke-width="1.2" d="M188,-1005C188,-1005 147,-1005 147,-1005 141,-1005 135,-999 135,-993 135,-993 135,-981 135,-981 135,-975 141,-969 147,-969 147,-969 188,-969 188,-969 194,-969 200,-975 200,-981 200,-981 200,-993 200,-993 200,-999 194,-1005 188,-1005"/>
<text text-anchor="middle" x="167.5" y="-984.5" font-family="monospace" font-size="10.00">y [t=&#45;1]</text>
</g>
<!-- y_f1&#45;&gt;y_f2 -->
<g id="edge30" class="edge">
<title>y_f1&#45;&gt;y_f2</title>
<path fill="none" stroke="#000000" stroke-width="1.5" d="M2288.38,-545.98C2300.64,-540.14 2314.4,-533.6 2327.26,-527.48"/>
<polygon fill="#000000" stroke="#000000" stroke-width="1.5" points="2328.9,-530.57 2336.43,-523.12 2325.89,-524.25 2328.9,-530.57"/>
</g>
<!-- y_f2&#45;&gt;y_f3 -->
<g id="edge31" class="edge">
<title>y_f2&#45;&gt;y_f3</title>
<path fill="none" stroke="#000000" stroke-width="1.5" d="M2412.7,-486.9C2426.07,-480.22 2441.39,-472.56 2455.45,-465.53"/>
<polygon fill="#000000" stroke="#000000" stroke-width="1.5" points="2457.09,-468.62 2464.47,-461.01 2453.96,-462.36 2457.09,-468.62"/>
</g>
<!-- y_f3&#45;&gt;y_f4 -->
<g id="edge32" class="edge">
<title>y_f3&#45;&gt;y_f4</title>
<path fill="none" stroke="#000000" stroke-width="1.5" d="M2543.1,-432.85C2553.59,-430.23 2565.02,-427.37 2575.95,-424.64"/>
<polygon fill="#000000" stroke="#000000" stroke-width="1.5" points="2576.95,-427.99 2585.81,-422.17 2575.26,-421.2 2576.95,-427.99"/>
</g>
<!-- y_f4&#45;&gt;y_f5 -->
<g id="edge33" class="edge">
<title>y_f4&#45;&gt;y_f5</title>
<path fill="none" stroke="#000000" stroke-width="1.5" d="M2669.1,-412C2679.49,-412 2690.78,-412 2701.61,-412"/>
<polygon fill="#000000" stroke="#000000" stroke-width="1.5" points="2701.81,-415.5 2711.81,-412 2701.81,-408.5 2701.81,-415.5"/>
</g>
<!-- y_f5&#45;&gt;y_f6 -->
<g id="edge34" class="edge">
<title>y_f5&#45;&gt;y_f6</title>
<path fill="none" stroke="#000000" stroke-width="1.5" d="M2769.21,-430.03C2791.03,-456.77 2832.07,-507.08 2857.18,-537.86"/>
<polygon fill="#000000" stroke="#000000" stroke-width="1.5" points="2854.77,-540.45 2863.81,-545.99 2860.2,-536.03 2854.77,-540.45"/>
</g>
<!-- y_f6&#45;&gt;y_f7 -->
<g id="edge35" class="edge">
<title>y_f6&#45;&gt;y_f7</title>
<path fill="none" stroke="#000000" stroke-width="1.5" d="M2921.1,-564C2931.49,-564 2942.78,-564 2953.61,-564"/>
<polygon fill="#000000" stroke="#000000" stroke-width="1.5" points="2953.81,-567.5 2963.81,-564 2953.81,-560.5 2953.81,-567.5"/>
</g>
<!-- y_f7&#45;&gt;y_f8 -->
<g id="edge36" class="edge">
<title>y_f7&#45;&gt;y_f8</title>
<path fill="none" stroke="#000000" stroke-width="1.5" d="M3013.52,-545.99C3034.19,-492.99 3094.91,-337.27 3119.74,-273.6"/>
<polygon fill="#000000" stroke="#000000" stroke-width="1.5" points="3123.03,-274.79 3123.4,-264.2 3116.51,-272.25 3123.03,-274.79"/>
</g>
<!-- y_f8&#45;&gt;tmp_f1 -->
<g id="edge37" class="edge">
<title>y_f8&#45;&gt;tmp_f1</title>
<path fill="none" stroke="#000000" stroke-width="1.5" d="M3173.28,-241.61C3183.65,-240.49 3194.99,-239.27 3206,-238.09"/>
<polygon fill="#000000" stroke="#000000" stroke-width="1.5" points="3206.41,-241.56 3215.97,-237.01 3205.66,-234.6 3206.41,-241.56"/>
</g>
</g>
</svg>
