<?xml version="1.0" encoding="UTF-8" standalone="no"?>
<!DOCTYPE svg PUBLIC "-//W3C//DTD SVG 1.1//EN"
 "http://www.w3.org/Graphics/SVG/1.1/DTD/svg11.dtd">
<!-- Generated by graphviz version 2.43.0 (0)
 -->
<!-- Title: G Pages: 1 -->
<svg width="3715pt" height="1409pt"
 viewBox="0.00 0.00 3715.00 1409.00" xmlns="http://www.w3.org/2000/svg" xmlns:xlink="http://www.w3.org/1999/xlink">
<g id="graph0" class="graph" transform="scale(1 1) rotate(0) translate(4 1405)">
<title>G</title>
<polygon fill="white" stroke="transparent" points="-4,4 -4,-1405 3711,-1405 3711,4 -4,4"/>
<!-- c3 -->
<g id="node1" class="node">
<title>c3</title>
<path fill="none" stroke="#4876f0" stroke-width="1.2" d="M191,-172C191,-172 144,-172 144,-172 138,-172 132,-166 132,-160 132,-160 132,-148 132,-148 132,-142 138,-136 144,-136 144,-136 191,-136 191,-136 197,-136 203,-142 203,-148 203,-148 203,-160 203,-160 203,-166 197,-172 191,-172"/>
<text text-anchor="middle" x="167.5" y="-151.5" font-family="monospace" font-size="10.00">c3 [t=&#45;1]</text>
</g>
<!-- c3_f1 -->
<g id="node2" class="node">
<title>c3_f1</title>
<path fill="none" stroke="#4876f0" stroke-width="1.2" d="M2237,-80C2237,-80 2172,-80 2172,-80 2166,-80 2160,-74 2160,-68 2160,-68 2160,-56 2160,-56 2160,-50 2166,-44 2172,-44 2172,-44 2237,-44 2237,-44 2243,-44 2249,-50 2249,-56 2249,-56 2249,-68 2249,-68 2249,-74 2243,-80 2237,-80"/>
<text text-anchor="middle" x="2204.5" y="-59.5" font-family="monospace" font-size="10.00">c3_f1 [t=17]</text>
</g>
<!-- vc3_f1 -->
<g id="node36" class="node">
<title>vc3_f1</title>
<path fill="none" stroke="#4876f0" stroke-width="1.2" d="M3029,-174C3029,-174 2958,-174 2958,-174 2952,-174 2946,-168 2946,-162 2946,-162 2946,-150 2946,-150 2946,-144 2952,-138 2958,-138 2958,-138 3029,-138 3029,-138 3035,-138 3041,-144 3041,-150 3041,-150 3041,-162 3041,-162 3041,-168 3035,-174 3029,-174"/>
<text text-anchor="middle" x="2993.5" y="-153.5" font-family="monospace" font-size="10.00">vc3_f1 [t=23]</text>
</g>
<!-- c3_f1&#45;&gt;vc3_f1 -->
<g id="edge1" class="edge">
<title>c3_f1&#45;&gt;vc3_f1</title>
<path fill="none" stroke="#000000" stroke-width="1.5" d="M2249.03,-62C2300.5,-62 2388.73,-62 2464.5,-62 2464.5,-62 2464.5,-62 2730.5,-62 2814.21,-62 2904.59,-105.04 2954.29,-132.87"/>
<polygon fill="#000000" stroke="#000000" stroke-width="1.5" points="2952.66,-135.97 2963.08,-137.88 2956.12,-129.89 2952.66,-135.97"/>
</g>
<!-- c5 -->
<g id="node3" class="node">
<title>c5</title>
<path fill="none" stroke="#4876f0" stroke-width="1.2" d="M191,-426C191,-426 144,-426 144,-426 138,-426 132,-420 132,-414 132,-414 132,-402 132,-402 132,-396 138,-390 144,-390 144,-390 191,-390 191,-390 197,-390 203,-396 203,-402 203,-402 203,-414 203,-414 203,-420 197,-426 191,-426"/>
<text text-anchor="middle" x="167.5" y="-405.5" font-family="monospace" font-size="10.00">c5 [t=&#45;1]</text>
</g>
<!-- c5_f1 -->
<g id="node4" class="node">
<title>c5_f1</title>
<path fill="none" stroke="#4876f0" stroke-width="1.2" d="M2105,-390C2105,-390 2040,-390 2040,-390 2034,-390 2028,-384 2028,-378 2028,-378 2028,-366 2028,-366 2028,-360 2034,-354 2040,-354 2040,-354 2105,-354 2105,-354 2111,-354 2117,-360 2117,-366 2117,-366 2117,-378 2117,-378 2117,-384 2111,-390 2105,-390"/>
<text text-anchor="middle" x="2072.5" y="-369.5" font-family="monospace" font-size="10.00">c5_f1 [t=16]</text>
</g>
<!-- vc5_f1 -->
<g id="node38" class="node">
<title>vc5_f1</title>
<path fill="none" stroke="#4876f0" stroke-width="1.2" d="M2765,-390C2765,-390 2694,-390 2694,-390 2688,-390 2682,-384 2682,-378 2682,-378 2682,-366 2682,-366 2682,-360 2688,-354 2694,-354 2694,-354 2765,-354 2765,-354 2771,-354 2777,-360 2777,-366 2777,-366 2777,-378 2777,-378 2777,-384 2771,-390 2765,-390"/>
<text text-anchor="middle" x="2729.5" y="-369.5" font-family="monospace" font-size="10.00">vc5_f1 [t=21]</text>
</g>
<!-- c5_f1&#45;&gt;vc5_f1 -->
<g id="edge2" class="edge">
<title>c5_f1&#45;&gt;vc5_f1</title>
<path fill="none" stroke="#000000" stroke-width="1.5" d="M2117.03,-372C2168.5,-372 2256.73,-372 2332.5,-372 2332.5,-372 2332.5,-372 2466.5,-372 2537.07,-372 2618.34,-372 2671.42,-372"/>
<polygon fill="#000000" stroke="#000000" stroke-width="1.5" points="2671.65,-375.5 2681.65,-372 2671.65,-368.5 2671.65,-375.5"/>
</g>
<!-- c7 -->
<g id="node5" class="node">
<title>c7</title>
<path fill="none" stroke="#4876f0" stroke-width="1.2" d="M191,-491C191,-491 144,-491 144,-491 138,-491 132,-485 132,-479 132,-479 132,-467 132,-467 132,-461 138,-455 144,-455 144,-455 191,-455 191,-455 197,-455 203,-461 203,-467 203,-467 203,-479 203,-479 203,-485 197,-491 191,-491"/>
<text text-anchor="middle" x="167.5" y="-470.5" font-family="monospace" font-size="10.00">c7 [t=&#45;1]</text>
</g>
<!-- c7_f1 -->
<g id="node6" class="node">
<title>c7_f1</title>
<path fill="none" stroke="#4876f0" stroke-width="1.2" d="M1973,-142C1973,-142 1908,-142 1908,-142 1902,-142 1896,-136 1896,-130 1896,-130 1896,-118 1896,-118 1896,-112 1902,-106 1908,-106 1908,-106 1973,-106 1973,-106 1979,-106 1985,-112 1985,-118 1985,-118 1985,-130 1985,-130 1985,-136 1979,-142 1973,-142"/>
<text text-anchor="middle" x="1940.5" y="-121.5" font-family="monospace" font-size="10.00">c7_f1 [t=15]</text>
</g>
<!-- vc7_f1 -->
<g id="node40" class="node">
<title>vc7_f1</title>
<path fill="none" stroke="#4876f0" stroke-width="1.2" d="M2501,-142C2501,-142 2430,-142 2430,-142 2424,-142 2418,-136 2418,-130 2418,-130 2418,-118 2418,-118 2418,-112 2424,-106 2430,-106 2430,-106 2501,-106 2501,-106 2507,-106 2513,-112 2513,-118 2513,-118 2513,-130 2513,-130 2513,-136 2507,-142 2501,-142"/>
<text text-anchor="middle" x="2465.5" y="-121.5" font-family="monospace" font-size="10.00">vc7_f1 [t=19]</text>
</g>
<!-- c7_f1&#45;&gt;vc7_f1 -->
<g id="edge3" class="edge">
<title>c7_f1&#45;&gt;vc7_f1</title>
<path fill="none" stroke="#000000" stroke-width="1.5" d="M1985.19,-124C2079.63,-124 2302.74,-124 2407.85,-124"/>
<polygon fill="#000000" stroke="#000000" stroke-width="1.5" points="2407.95,-127.5 2417.95,-124 2407.95,-120.5 2407.95,-127.5"/>
</g>
<!-- c9 -->
<g id="node7" class="node">
<title>c9</title>
<path fill="none" stroke="#4876f0" stroke-width="1.2" d="M191,-556C191,-556 144,-556 144,-556 138,-556 132,-550 132,-544 132,-544 132,-532 132,-532 132,-526 138,-520 144,-520 144,-520 191,-520 191,-520 197,-520 203,-526 203,-532 203,-532 203,-544 203,-544 203,-550 197,-556 191,-556"/>
<text text-anchor="middle" x="167.5" y="-535.5" font-family="monospace" font-size="10.00">c9 [t=&#45;1]</text>
</g>
<!-- c9_f1 -->
<g id="node8" class="node">
<title>c9_f1</title>
<path fill="none" stroke="#4876f0" stroke-width="1.2" d="M1841,-266C1841,-266 1776,-266 1776,-266 1770,-266 1764,-260 1764,-254 1764,-254 1764,-242 1764,-242 1764,-236 1770,-230 1776,-230 1776,-230 1841,-230 1841,-230 1847,-230 1853,-236 1853,-242 1853,-242 1853,-254 1853,-254 1853,-260 1847,-266 1841,-266"/>
<text text-anchor="middle" x="1808.5" y="-245.5" font-family="monospace" font-size="10.00">c9_f1 [t=14]</text>
</g>
<!-- y_f1 -->
<g id="node43" class="node">
<title>y_f1</title>
<path fill="none" stroke="#4876f0" stroke-width="1.2" d="M2363,-266C2363,-266 2304,-266 2304,-266 2298,-266 2292,-260 2292,-254 2292,-254 2292,-242 2292,-242 2292,-236 2298,-230 2304,-230 2304,-230 2363,-230 2363,-230 2369,-230 2375,-236 2375,-242 2375,-242 2375,-254 2375,-254 2375,-260 2369,-266 2363,-266"/>
<text text-anchor="middle" x="2333.5" y="-245.5" font-family="monospace" font-size="10.00">y_f1 [t=18]</text>
</g>
<!-- c9_f1&#45;&gt;y_f1 -->
<g id="edge4" class="edge">
<title>c9_f1&#45;&gt;y_f1</title>
<path fill="none" stroke="#000000" stroke-width="1.5" d="M1853.19,-248C1949.44,-248 2179.31,-248 2281.74,-248"/>
<polygon fill="#000000" stroke="#000000" stroke-width="1.5" points="2281.83,-251.5 2291.83,-248 2281.83,-244.5 2281.83,-251.5"/>
</g>
<!-- half -->
<g id="node9" class="node">
<title>half</title>
<path fill="none" stroke="#4876f0" stroke-width="1.2" d="M197,-621C197,-621 138,-621 138,-621 132,-621 126,-615 126,-609 126,-609 126,-597 126,-597 126,-591 132,-585 138,-585 138,-585 197,-585 197,-585 203,-585 209,-591 209,-597 209,-597 209,-609 209,-609 209,-615 203,-621 197,-621"/>
<text text-anchor="middle" x="167.5" y="-600.5" font-family="monospace" font-size="10.00">half [t=&#45;1]</text>
</g>
<!-- half_f1 -->
<g id="node10" class="node">
<title>half_f1</title>
<path fill="none" stroke="#4876f0" stroke-width="1.2" d="M203,-361C203,-361 132,-361 132,-361 126,-361 120,-355 120,-349 120,-349 120,-337 120,-337 120,-331 126,-325 132,-325 132,-325 203,-325 203,-325 209,-325 215,-331 215,-337 215,-337 215,-349 215,-349 215,-355 209,-361 203,-361"/>
<text text-anchor="middle" x="167.5" y="-340.5" font-family="monospace" font-size="10.00">half_f1 [t=1]</text>
</g>
<!-- n_f2 -->
<g id="node13" class="node">
<title>n_f2</title>
<path fill="none" stroke="#4876f0" stroke-width="1.2" d="M443,-299C443,-299 390,-299 390,-299 384,-299 378,-293 378,-287 378,-287 378,-275 378,-275 378,-269 384,-263 390,-263 390,-263 443,-263 443,-263 449,-263 455,-269 455,-275 455,-275 455,-287 455,-287 455,-293 449,-299 443,-299"/>
<text text-anchor="middle" x="416.5" y="-278.5" font-family="monospace" font-size="10.00">n_f2 [t=3]</text>
</g>
<!-- half_f1&#45;&gt;n_f2 -->
<g id="edge5" class="edge">
<title>half_f1&#45;&gt;n_f2</title>
<path fill="none" stroke="#000000" stroke-width="1.5" d="M215.25,-332.18C248.67,-324.34 294.69,-313.35 335,-303 345.74,-300.24 357.26,-297.17 368.13,-294.21"/>
<polygon fill="#000000" stroke="#000000" stroke-width="1.5" points="369.17,-297.55 377.89,-291.54 367.32,-290.8 369.17,-297.55"/>
</g>
<!-- n -->
<g id="node11" class="node">
<title>n</title>
<path fill="none" stroke="#4876f0" stroke-width="1.2" d="M188,-686C188,-686 147,-686 147,-686 141,-686 135,-680 135,-674 135,-674 135,-662 135,-662 135,-656 141,-650 147,-650 147,-650 188,-650 188,-650 194,-650 200,-656 200,-662 200,-662 200,-674 200,-674 200,-680 194,-686 188,-686"/>
<text text-anchor="middle" x="167.5" y="-665.5" font-family="monospace" font-size="10.00">n [t=&#45;1]</text>
</g>
<!-- n_f1 -->
<g id="node12" class="node">
<title>n_f1</title>
<path fill="none" stroke="#4876f0" stroke-width="1.2" d="M65,-299C65,-299 12,-299 12,-299 6,-299 0,-293 0,-287 0,-287 0,-275 0,-275 0,-269 6,-263 12,-263 12,-263 65,-263 65,-263 71,-263 77,-269 77,-275 77,-275 77,-287 77,-287 77,-293 71,-299 65,-299"/>
<text text-anchor="middle" x="38.5" y="-278.5" font-family="monospace" font-size="10.00">n_f1 [t=0]</text>
</g>
<!-- n_f1&#45;&gt;n_f2 -->
<g id="edge6" class="edge">
<title>n_f1&#45;&gt;n_f2</title>
<path fill="none" stroke="#000000" stroke-width="1.5" d="M77.27,-281C146.11,-281 291.82,-281 367.55,-281"/>
<polygon fill="#000000" stroke="#000000" stroke-width="1.5" points="367.75,-284.5 377.75,-281 367.75,-277.5 367.75,-284.5"/>
</g>
<!-- ni_f1 -->
<g id="node17" class="node">
<title>ni_f1</title>
<path fill="none" stroke="#4876f0" stroke-width="1.2" d="M569,-299C569,-299 510,-299 510,-299 504,-299 498,-293 498,-287 498,-287 498,-275 498,-275 498,-269 504,-263 510,-263 510,-263 569,-263 569,-263 575,-263 581,-269 581,-275 581,-275 581,-287 581,-287 581,-293 575,-299 569,-299"/>
<text text-anchor="middle" x="539.5" y="-278.5" font-family="monospace" font-size="10.00">ni_f1 [t=4]</text>
</g>
<!-- n_f2&#45;&gt;ni_f1 -->
<g id="edge7" class="edge">
<title>n_f2&#45;&gt;ni_f1</title>
<path fill="none" stroke="#000000" stroke-width="1.5" d="M455.12,-281C465.43,-281 476.77,-281 487.68,-281"/>
<polygon fill="#000000" stroke="#000000" stroke-width="1.5" points="487.96,-284.5 497.96,-281 487.96,-277.5 487.96,-284.5"/>
</g>
<!-- n_f3 -->
<g id="node14" class="node">
<title>n_f3</title>
<path fill="none" stroke="#4876f0" stroke-width="1.2" d="M689,-368C689,-368 636,-368 636,-368 630,-368 624,-362 624,-356 624,-356 624,-344 624,-344 624,-338 630,-332 636,-332 636,-332 689,-332 689,-332 695,-332 701,-338 701,-344 701,-344 701,-356 701,-356 701,-362 695,-368 689,-368"/>
<text text-anchor="middle" x="662.5" y="-347.5" font-family="monospace" font-size="10.00">n_f3 [t=5]</text>
</g>
<!-- n_f4 -->
<g id="node15" class="node">
<title>n_f4</title>
<path fill="none" stroke="#4876f0" stroke-width="1.2" d="M941,-412C941,-412 888,-412 888,-412 882,-412 876,-406 876,-400 876,-400 876,-388 876,-388 876,-382 882,-376 888,-376 888,-376 941,-376 941,-376 947,-376 953,-382 953,-388 953,-388 953,-400 953,-400 953,-406 947,-412 941,-412"/>
<text text-anchor="middle" x="914.5" y="-391.5" font-family="monospace" font-size="10.00">n_f4 [t=7]</text>
</g>
<!-- n_f3&#45;&gt;n_f4 -->
<g id="edge8" class="edge">
<title>n_f3&#45;&gt;n_f4</title>
<path fill="none" stroke="#000000" stroke-width="1.5" d="M701.2,-356.63C745.17,-364.37 817.92,-377.18 865.79,-385.6"/>
<polygon fill="#000000" stroke="#000000" stroke-width="1.5" points="865.45,-389.1 875.9,-387.38 866.66,-382.2 865.45,-389.1"/>
</g>
<!-- r_f2 -->
<g id="node27" class="node">
<title>r_f2</title>
<path fill="none" stroke="#4876f0" stroke-width="1.2" d="M1193,-358C1193,-358 1140,-358 1140,-358 1134,-358 1128,-352 1128,-346 1128,-346 1128,-334 1128,-334 1128,-328 1134,-322 1140,-322 1140,-322 1193,-322 1193,-322 1199,-322 1205,-328 1205,-334 1205,-334 1205,-346 1205,-346 1205,-352 1199,-358 1193,-358"/>
<text text-anchor="middle" x="1166.5" y="-337.5" font-family="monospace" font-size="10.00">r_f2 [t=9]</text>
</g>
<!-- n_f4&#45;&gt;r_f2 -->
<g id="edge9" class="edge">
<title>n_f4&#45;&gt;r_f2</title>
<path fill="none" stroke="#000000" stroke-width="1.5" d="M953.2,-385.86C997.26,-376.34 1070.23,-360.58 1118.09,-350.24"/>
<polygon fill="#000000" stroke="#000000" stroke-width="1.5" points="1118.87,-353.65 1127.9,-348.12 1117.39,-346.81 1118.87,-353.65"/>
</g>
<!-- r_f3 -->
<g id="node28" class="node">
<title>r_f3</title>
<path fill="none" stroke="#4876f0" stroke-width="1.2" d="M1319,-418C1319,-418 1260,-418 1260,-418 1254,-418 1248,-412 1248,-406 1248,-406 1248,-394 1248,-394 1248,-388 1254,-382 1260,-382 1260,-382 1319,-382 1319,-382 1325,-382 1331,-388 1331,-394 1331,-394 1331,-406 1331,-406 1331,-412 1325,-418 1319,-418"/>
<text text-anchor="middle" x="1289.5" y="-397.5" font-family="monospace" font-size="10.00">r_f3 [t=10]</text>
</g>
<!-- n_f4&#45;&gt;r_f3 -->
<g id="edge10" class="edge">
<title>n_f4&#45;&gt;r_f3</title>
<path fill="none" stroke="#000000" stroke-width="1.5" d="M953.32,-394.61C1020.71,-395.69 1161.62,-397.96 1237.5,-399.18"/>
<polygon fill="#000000" stroke="#000000" stroke-width="1.5" points="1237.7,-402.68 1247.76,-399.34 1237.82,-395.68 1237.7,-402.68"/>
</g>
<!-- r_f4 -->
<g id="node29" class="node">
<title>r_f4</title>
<path fill="none" stroke="#4876f0" stroke-width="1.2" d="M1445,-480C1445,-480 1386,-480 1386,-480 1380,-480 1374,-474 1374,-468 1374,-468 1374,-456 1374,-456 1374,-450 1380,-444 1386,-444 1386,-444 1445,-444 1445,-444 1451,-444 1457,-450 1457,-456 1457,-456 1457,-468 1457,-468 1457,-474 1451,-480 1445,-480"/>
<text text-anchor="middle" x="1415.5" y="-459.5" font-family="monospace" font-size="10.00">r_f4 [t=11]</text>
</g>
<!-- n_f4&#45;&gt;r_f4 -->
<g id="edge11" class="edge">
<title>n_f4&#45;&gt;r_f4</title>
<path fill="none" stroke="#000000" stroke-width="1.5" d="M953.26,-406.23C966.64,-410.18 981.88,-414.24 996,-417 1127.1,-442.58 1284.35,-454.57 1363.57,-459.34"/>
<polygon fill="#000000" stroke="#000000" stroke-width="1.5" points="1363.57,-462.85 1373.76,-459.94 1363.98,-455.86 1363.57,-462.85"/>
</g>
<!-- ni -->
<g id="node16" class="node">
<title>ni</title>
<path fill="none" stroke="#4876f0" stroke-width="1.2" d="M191,-751C191,-751 144,-751 144,-751 138,-751 132,-745 132,-739 132,-739 132,-727 132,-727 132,-721 138,-715 144,-715 144,-715 191,-715 191,-715 197,-715 203,-721 203,-727 203,-727 203,-739 203,-739 203,-745 197,-751 191,-751"/>
<text text-anchor="middle" x="167.5" y="-730.5" font-family="monospace" font-size="10.00">ni [t=&#45;1]</text>
</g>
<!-- ni_f1&#45;&gt;n_f3 -->
<g id="edge12" class="edge">
<title>ni_f1&#45;&gt;n_f3</title>
<path fill="none" stroke="#000000" stroke-width="1.5" d="M572.29,-299.13C587.16,-307.61 605.04,-317.8 620.87,-326.83"/>
<polygon fill="#000000" stroke="#000000" stroke-width="1.5" points="619.5,-330.08 629.92,-331.99 622.97,-324 619.5,-330.08"/>
</g>
<!-- odd_f1 -->
<g id="node19" class="node">
<title>odd_f1</title>
<path fill="none" stroke="#4876f0" stroke-width="1.2" d="M821,-299C821,-299 756,-299 756,-299 750,-299 744,-293 744,-287 744,-287 744,-275 744,-275 744,-269 750,-263 756,-263 756,-263 821,-263 821,-263 827,-263 833,-269 833,-275 833,-275 833,-287 833,-287 833,-293 827,-299 821,-299"/>
<text text-anchor="middle" x="788.5" y="-278.5" font-family="monospace" font-size="10.00">odd_f1 [t=6]</text>
</g>
<!-- ni_f1&#45;&gt;odd_f1 -->
<g id="edge13" class="edge">
<title>ni_f1&#45;&gt;odd_f1</title>
<path fill="none" stroke="#000000" stroke-width="1.5" d="M581.01,-281C622.62,-281 687.61,-281 733.56,-281"/>
<polygon fill="#000000" stroke="#000000" stroke-width="1.5" points="733.63,-284.5 743.63,-281 733.63,-277.5 733.63,-284.5"/>
</g>
<!-- odd -->
<g id="node18" class="node">
<title>odd</title>
<path fill="none" stroke="#4876f0" stroke-width="1.2" d="M194,-816C194,-816 141,-816 141,-816 135,-816 129,-810 129,-804 129,-804 129,-792 129,-792 129,-786 135,-780 141,-780 141,-780 194,-780 194,-780 200,-780 206,-786 206,-792 206,-792 206,-804 206,-804 206,-810 200,-816 194,-816"/>
<text text-anchor="middle" x="167.5" y="-795.5" font-family="monospace" font-size="10.00">odd [t=&#45;1]</text>
</g>
<!-- odd_f2 -->
<g id="node20" class="node">
<title>odd_f2</title>
<path fill="none" stroke="#4876f0" stroke-width="1.2" d="M1073,-299C1073,-299 1008,-299 1008,-299 1002,-299 996,-293 996,-287 996,-287 996,-275 996,-275 996,-269 1002,-263 1008,-263 1008,-263 1073,-263 1073,-263 1079,-263 1085,-269 1085,-275 1085,-275 1085,-287 1085,-287 1085,-293 1079,-299 1073,-299"/>
<text text-anchor="middle" x="1040.5" y="-278.5" font-family="monospace" font-size="10.00">odd_f2 [t=8]</text>
</g>
<!-- odd_f1&#45;&gt;odd_f2 -->
<g id="edge14" class="edge">
<title>odd_f1&#45;&gt;odd_f2</title>
<path fill="none" stroke="#000000" stroke-width="1.5" d="M833.05,-281C875.45,-281 939.99,-281 985.61,-281"/>
<polygon fill="#000000" stroke="#000000" stroke-width="1.5" points="985.61,-284.5 995.61,-281 985.61,-277.5 985.61,-284.5"/>
</g>
<!-- tmp_f2 -->
<g id="node33" class="node">
<title>tmp_f2</title>
<path fill="none" stroke="#4876f0" stroke-width="1.2" d="M3557,-233C3557,-233 3486,-233 3486,-233 3480,-233 3474,-227 3474,-221 3474,-221 3474,-209 3474,-209 3474,-203 3480,-197 3486,-197 3486,-197 3557,-197 3557,-197 3563,-197 3569,-203 3569,-209 3569,-209 3569,-221 3569,-221 3569,-227 3563,-233 3557,-233"/>
<text text-anchor="middle" x="3521.5" y="-212.5" font-family="monospace" font-size="10.00">tmp_f2 [t=27]</text>
</g>
<!-- odd_f2&#45;&gt;tmp_f2 -->
<g id="edge15" class="edge">
<title>odd_f2&#45;&gt;tmp_f2</title>
<path fill="none" stroke="#000000" stroke-width="1.5" d="M1047.28,-262.99C1068.45,-200.98 1147.88,0 1288.5,0 1288.5,0 1288.5,0 3252.5,0 3371.4,0 3467.63,-130.36 3504.4,-188.06"/>
<polygon fill="#000000" stroke="#000000" stroke-width="1.5" points="3501.51,-190.05 3509.78,-196.67 3507.45,-186.34 3501.51,-190.05"/>
</g>
<!-- r -->
<g id="node21" class="node">
<title>r</title>
<path fill="none" stroke="#4876f0" stroke-width="1.2" d="M188,-881C188,-881 147,-881 147,-881 141,-881 135,-875 135,-869 135,-869 135,-857 135,-857 135,-851 141,-845 147,-845 147,-845 188,-845 188,-845 194,-845 200,-851 200,-857 200,-857 200,-869 200,-869 200,-875 194,-881 188,-881"/>
<text text-anchor="middle" x="167.5" y="-860.5" font-family="monospace" font-size="10.00">r [t=&#45;1]</text>
</g>
<!-- r2 -->
<g id="node22" class="node">
<title>r2</title>
<path fill="none" stroke="#4876f0" stroke-width="1.2" d="M191,-946C191,-946 144,-946 144,-946 138,-946 132,-940 132,-934 132,-934 132,-922 132,-922 132,-916 138,-910 144,-910 144,-910 191,-910 191,-910 197,-910 203,-916 203,-922 203,-922 203,-934 203,-934 203,-940 197,-946 191,-946"/>
<text text-anchor="middle" x="167.5" y="-925.5" font-family="monospace" font-size="10.00">r2 [t=&#45;1]</text>
</g>
<!-- r2_f1 -->
<g id="node23" class="node">
<title>r2_f1</title>
<path fill="none" stroke="#4876f0" stroke-width="1.2" d="M1577,-449C1577,-449 1512,-449 1512,-449 1506,-449 1500,-443 1500,-437 1500,-437 1500,-425 1500,-425 1500,-419 1506,-413 1512,-413 1512,-413 1577,-413 1577,-413 1583,-413 1589,-419 1589,-425 1589,-425 1589,-437 1589,-437 1589,-443 1583,-449 1577,-449"/>
<text text-anchor="middle" x="1544.5" y="-428.5" font-family="monospace" font-size="10.00">r2_f1 [t=12]</text>
</g>
<!-- r3_f1 -->
<g id="node25" class="node">
<title>r3_f1</title>
<path fill="none" stroke="#4876f0" stroke-width="1.2" d="M1709,-511C1709,-511 1644,-511 1644,-511 1638,-511 1632,-505 1632,-499 1632,-499 1632,-487 1632,-487 1632,-481 1638,-475 1644,-475 1644,-475 1709,-475 1709,-475 1715,-475 1721,-481 1721,-487 1721,-487 1721,-499 1721,-499 1721,-505 1715,-511 1709,-511"/>
<text text-anchor="middle" x="1676.5" y="-490.5" font-family="monospace" font-size="10.00">r3_f1 [t=13]</text>
</g>
<!-- r2_f1&#45;&gt;r3_f1 -->
<g id="edge16" class="edge">
<title>r2_f1&#45;&gt;r3_f1</title>
<path fill="none" stroke="#000000" stroke-width="1.5" d="M1583.45,-449.1C1597.6,-455.85 1613.83,-463.59 1628.69,-470.67"/>
<polygon fill="#000000" stroke="#000000" stroke-width="1.5" points="1627.19,-473.84 1637.73,-474.99 1630.21,-467.52 1627.19,-473.84"/>
</g>
<!-- y_f2 -->
<g id="node44" class="node">
<title>y_f2</title>
<path fill="none" stroke="#4876f0" stroke-width="1.2" d="M2627,-234C2627,-234 2568,-234 2568,-234 2562,-234 2556,-228 2556,-222 2556,-222 2556,-210 2556,-210 2556,-204 2562,-198 2568,-198 2568,-198 2627,-198 2627,-198 2633,-198 2639,-204 2639,-210 2639,-210 2639,-222 2639,-222 2639,-228 2633,-234 2627,-234"/>
<text text-anchor="middle" x="2597.5" y="-213.5" font-family="monospace" font-size="10.00">y_f2 [t=20]</text>
</g>
<!-- r2_f1&#45;&gt;y_f2 -->
<g id="edge17" class="edge">
<title>r2_f1&#45;&gt;y_f2</title>
<path fill="none" stroke="#000000" stroke-width="1.5" d="M1552.93,-412.78C1565.59,-383.55 1593.71,-325.62 1632,-288 1696.35,-224.77 1717.28,-186 1807.5,-186 1807.5,-186 1807.5,-186 2334.5,-186 2408.33,-186 2493.1,-197.9 2545.74,-206.71"/>
<polygon fill="#000000" stroke="#000000" stroke-width="1.5" points="2545.38,-210.2 2555.82,-208.43 2546.55,-203.3 2545.38,-210.2"/>
</g>
<!-- y_f3 -->
<g id="node45" class="node">
<title>y_f3</title>
<path fill="none" stroke="#4876f0" stroke-width="1.2" d="M2891,-344C2891,-344 2832,-344 2832,-344 2826,-344 2820,-338 2820,-332 2820,-332 2820,-320 2820,-320 2820,-314 2826,-308 2832,-308 2832,-308 2891,-308 2891,-308 2897,-308 2903,-314 2903,-320 2903,-320 2903,-332 2903,-332 2903,-338 2897,-344 2891,-344"/>
<text text-anchor="middle" x="2861.5" y="-323.5" font-family="monospace" font-size="10.00">y_f3 [t=22]</text>
</g>
<!-- r2_f1&#45;&gt;y_f3 -->
<g id="edge18" class="edge">
<title>r2_f1&#45;&gt;y_f3</title>
<path fill="none" stroke="#000000" stroke-width="1.5" d="M1567.39,-412.89C1610.48,-379.13 1710.55,-310 1807.5,-310 1807.5,-310 1807.5,-310 2598.5,-310 2671.98,-310 2756.84,-316.35 2809.59,-321.05"/>
<polygon fill="#000000" stroke="#000000" stroke-width="1.5" points="2809.43,-324.55 2819.7,-321.96 2810.06,-317.57 2809.43,-324.55"/>
</g>
<!-- y_f4 -->
<g id="node46" class="node">
<title>y_f4</title>
<path fill="none" stroke="#4876f0" stroke-width="1.2" d="M3155,-405C3155,-405 3096,-405 3096,-405 3090,-405 3084,-399 3084,-393 3084,-393 3084,-381 3084,-381 3084,-375 3090,-369 3096,-369 3096,-369 3155,-369 3155,-369 3161,-369 3167,-375 3167,-381 3167,-381 3167,-393 3167,-393 3167,-399 3161,-405 3155,-405"/>
<text text-anchor="middle" x="3125.5" y="-384.5" font-family="monospace" font-size="10.00">y_f4 [t=24]</text>
</g>
<!-- r2_f1&#45;&gt;y_f4 -->
<g id="edge19" class="edge">
<title>r2_f1&#45;&gt;y_f4</title>
<path fill="none" stroke="#000000" stroke-width="1.5" d="M1589,-431.34C1694.41,-432.12 1971.88,-434 2203.5,-434 2203.5,-434 2203.5,-434 2862.5,-434 2936.96,-434 3021.47,-415.38 3073.89,-401.58"/>
<polygon fill="#000000" stroke="#000000" stroke-width="1.5" points="3074.86,-404.95 3083.61,-398.98 3073.05,-398.19 3074.86,-404.95"/>
</g>
<!-- r3 -->
<g id="node24" class="node">
<title>r3</title>
<path fill="none" stroke="#4876f0" stroke-width="1.2" d="M191,-1011C191,-1011 144,-1011 144,-1011 138,-1011 132,-1005 132,-999 132,-999 132,-987 132,-987 132,-981 138,-975 144,-975 144,-975 191,-975 191,-975 197,-975 203,-981 203,-987 203,-987 203,-999 203,-999 203,-1005 197,-1011 191,-1011"/>
<text text-anchor="middle" x="167.5" y="-990.5" font-family="monospace" font-size="10.00">r3 [t=&#45;1]</text>
</g>
<!-- y_f5 -->
<g id="node47" class="node">
<title>y_f5</title>
<path fill="none" stroke="#4876f0" stroke-width="1.2" d="M3281,-436C3281,-436 3222,-436 3222,-436 3216,-436 3210,-430 3210,-424 3210,-424 3210,-412 3210,-412 3210,-406 3216,-400 3222,-400 3222,-400 3281,-400 3281,-400 3287,-400 3293,-406 3293,-412 3293,-412 3293,-424 3293,-424 3293,-430 3287,-436 3281,-436"/>
<text text-anchor="middle" x="3251.5" y="-415.5" font-family="monospace" font-size="10.00">y_f5 [t=25]</text>
</g>
<!-- r3_f1&#45;&gt;y_f5 -->
<g id="edge20" class="edge">
<title>r3_f1&#45;&gt;y_f5</title>
<path fill="none" stroke="#000000" stroke-width="1.5" d="M1721.08,-493C1773.07,-493 1862.63,-493 1939.5,-493 1939.5,-493 1939.5,-493 2994.5,-493 3070.2,-493 3153.61,-462.42 3204.01,-440.31"/>
<polygon fill="#000000" stroke="#000000" stroke-width="1.5" points="3205.63,-443.43 3213.33,-436.16 3202.77,-437.03 3205.63,-443.43"/>
</g>
<!-- r_f1 -->
<g id="node26" class="node">
<title>r_f1</title>
<path fill="none" stroke="#4876f0" stroke-width="1.2" d="M323,-237C323,-237 270,-237 270,-237 264,-237 258,-231 258,-225 258,-225 258,-213 258,-213 258,-207 264,-201 270,-201 270,-201 323,-201 323,-201 329,-201 335,-207 335,-213 335,-213 335,-225 335,-225 335,-231 329,-237 323,-237"/>
<text text-anchor="middle" x="296.5" y="-216.5" font-family="monospace" font-size="10.00">r_f1 [t=2]</text>
</g>
<!-- r_f1&#45;&gt;n_f2 -->
<g id="edge21" class="edge">
<title>r_f1&#45;&gt;n_f2</title>
<path fill="none" stroke="#000000" stroke-width="1.5" d="M331.95,-237.1C344.55,-243.72 358.97,-251.3 372.24,-258.27"/>
<polygon fill="#000000" stroke="#000000" stroke-width="1.5" points="370.73,-261.43 381.21,-262.99 373.99,-255.24 370.73,-261.43"/>
</g>
<!-- r_f1&#45;&gt;r_f2 -->
<g id="edge22" class="edge">
<title>r_f1&#45;&gt;r_f2</title>
<path fill="none" stroke="#000000" stroke-width="1.5" d="M335.07,-219C382.48,-219 466.53,-219 538.5,-219 538.5,-219 538.5,-219 915.5,-219 991.93,-219 1018.32,-210.64 1085,-248 1112.54,-263.43 1135.26,-291.99 1149.45,-313.21"/>
<polygon fill="#000000" stroke="#000000" stroke-width="1.5" points="1146.64,-315.3 1155.01,-321.8 1152.51,-311.5 1146.64,-315.3"/>
</g>
<!-- r_f2&#45;&gt;r_f3 -->
<g id="edge23" class="edge">
<title>r_f2&#45;&gt;r_f3</title>
<path fill="none" stroke="#000000" stroke-width="1.5" d="M1203.8,-358C1216.02,-364.06 1229.8,-370.89 1242.65,-377.26"/>
<polygon fill="#000000" stroke="#000000" stroke-width="1.5" points="1241.29,-380.5 1251.8,-381.8 1244.4,-374.23 1241.29,-380.5"/>
</g>
<!-- r_f3&#45;&gt;r_f4 -->
<g id="edge24" class="edge">
<title>r_f3&#45;&gt;r_f4</title>
<path fill="none" stroke="#000000" stroke-width="1.5" d="M1326.7,-418.1C1340.07,-424.78 1355.39,-432.44 1369.45,-439.47"/>
<polygon fill="#000000" stroke="#000000" stroke-width="1.5" points="1367.96,-442.64 1378.47,-443.99 1371.09,-436.38 1367.96,-442.64"/>
</g>
<!-- r_f4&#45;&gt;r2_f1 -->
<g id="edge25" class="edge">
<title>r_f4&#45;&gt;r2_f1</title>
<path fill="none" stroke="#000000" stroke-width="1.5" d="M1457.03,-452.11C1467.48,-449.56 1478.89,-446.77 1489.89,-444.09"/>
<polygon fill="#000000" stroke="#000000" stroke-width="1.5" points="1490.96,-447.43 1499.84,-441.66 1489.3,-440.63 1490.96,-447.43"/>
</g>
<!-- r_f4&#45;&gt;r3_f1 -->
<g id="edge26" class="edge">
<title>r_f4&#45;&gt;r3_f1</title>
<path fill="none" stroke="#000000" stroke-width="1.5" d="M1457.25,-466.88C1501.67,-472.19 1572.94,-480.72 1621.87,-486.58"/>
<polygon fill="#000000" stroke="#000000" stroke-width="1.5" points="1621.61,-490.08 1631.96,-487.79 1622.45,-483.12 1621.61,-490.08"/>
</g>
<!-- r_f4&#45;&gt;y_f5 -->
<g id="edge27" class="edge">
<title>r_f4&#45;&gt;y_f5</title>
<path fill="none" stroke="#000000" stroke-width="1.5" d="M1445.96,-480.15C1492.77,-507.22 1587.83,-555 1675.5,-555 1675.5,-555 1675.5,-555 2994.5,-555 3088.22,-555 3180.84,-482.73 3224.53,-443.17"/>
<polygon fill="#000000" stroke="#000000" stroke-width="1.5" points="3227.12,-445.54 3232.1,-436.19 3222.38,-440.4 3227.12,-445.54"/>
</g>
<!-- return -->
<g id="node30" class="node">
<title>return</title>
<path fill="none" stroke="#4876f0" stroke-width="1.2" d="M3695,-233C3695,-233 3624,-233 3624,-233 3618,-233 3612,-227 3612,-221 3612,-221 3612,-209 3612,-209 3612,-203 3618,-197 3624,-197 3624,-197 3695,-197 3695,-197 3701,-197 3707,-203 3707,-209 3707,-209 3707,-221 3707,-221 3707,-227 3701,-233 3695,-233"/>
<text text-anchor="middle" x="3659.5" y="-212.5" font-family="monospace" font-size="10.00">return [t=28]</text>
</g>
<!-- tmp -->
<g id="node31" class="node">
<title>tmp</title>
<path fill="none" stroke="#4876f0" stroke-width="1.2" d="M194,-1076C194,-1076 141,-1076 141,-1076 135,-1076 129,-1070 129,-1064 129,-1064 129,-1052 129,-1052 129,-1046 135,-1040 141,-1040 141,-1040 194,-1040 194,-1040 200,-1040 206,-1046 206,-1052 206,-1052 206,-1064 206,-1064 206,-1070 200,-1076 194,-1076"/>
<text text-anchor="middle" x="167.5" y="-1055.5" font-family="monospace" font-size="10.00">tmp [t=&#45;1]</text>
</g>
<!-- tmp_f1 -->
<g id="node32" class="node">
<title>tmp_f1</title>
<path fill="none" stroke="#4876f0" stroke-width="1.2" d="M3419,-328C3419,-328 3348,-328 3348,-328 3342,-328 3336,-322 3336,-316 3336,-316 3336,-304 3336,-304 3336,-298 3342,-292 3348,-292 3348,-292 3419,-292 3419,-292 3425,-292 3431,-298 3431,-304 3431,-304 3431,-316 3431,-316 3431,-322 3425,-328 3419,-328"/>
<text text-anchor="middle" x="3383.5" y="-307.5" font-family="monospace" font-size="10.00">tmp_f1 [t=26]</text>
</g>
<!-- tmp_f1&#45;&gt;tmp_f2 -->
<g id="edge28" class="edge">
<title>tmp_f1&#45;&gt;tmp_f2</title>
<path fill="none" stroke="#000000" stroke-width="1.5" d="M3410.4,-291.91C3431.95,-276.85 3462.81,-255.3 3486.37,-238.84"/>
<polygon fill="#000000" stroke="#000000" stroke-width="1.5" points="3488.5,-241.62 3494.7,-233.03 3484.49,-235.88 3488.5,-241.62"/>
</g>
<!-- tmp_f2&#45;&gt;return -->
<g id="edge29" class="edge">
<title>tmp_f2&#45;&gt;return</title>
<path fill="none" stroke="#000000" stroke-width="1.5" d="M3569.3,-215C3579.67,-215 3590.76,-215 3601.48,-215"/>
<polygon fill="#000000" stroke="#000000" stroke-width="1.5" points="3601.61,-218.5 3611.61,-215 3601.61,-211.5 3601.61,-218.5"/>
</g>
<!-- v -->
<g id="node34" class="node">
<title>v</title>
<path fill="none" stroke="#4876f0" stroke-width="1.2" d="M188,-237C188,-237 147,-237 147,-237 141,-237 135,-231 135,-225 135,-225 135,-213 135,-213 135,-207 141,-201 147,-201 147,-201 188,-201 188,-201 194,-201 200,-207 200,-213 200,-213 200,-225 200,-225 200,-231 194,-237 188,-237"/>
<text text-anchor="middle" x="167.5" y="-216.5" font-family="monospace" font-size="10.00">v [t=&#45;1]</text>
</g>
<!-- v&#45;&gt;r_f1 -->
<g id="edge30" class="edge">
<title>v&#45;&gt;r_f1</title>
<path fill="none" stroke="#000000" stroke-width="1.5" d="M200.22,-219C214.56,-219 231.82,-219 247.69,-219"/>
<polygon fill="#000000" stroke="#000000" stroke-width="1.5" points="247.87,-222.5 257.87,-219 247.87,-215.5 247.87,-222.5"/>
</g>
<!-- vc3 -->
<g id="node35" class="node">
<title>vc3</title>
<path fill="none" stroke="#4876f0" stroke-width="1.2" d="M194,-1141C194,-1141 141,-1141 141,-1141 135,-1141 129,-1135 129,-1129 129,-1129 129,-1117 129,-1117 129,-1111 135,-1105 141,-1105 141,-1105 194,-1105 194,-1105 200,-1105 206,-1111 206,-1117 206,-1117 206,-1129 206,-1129 206,-1135 200,-1141 194,-1141"/>
<text text-anchor="middle" x="167.5" y="-1120.5" font-family="monospace" font-size="10.00">vc3 [t=&#45;1]</text>
</g>
<!-- vc3_f1&#45;&gt;y_f4 -->
<g id="edge31" class="edge">
<title>vc3_f1&#45;&gt;y_f4</title>
<path fill="none" stroke="#000000" stroke-width="1.5" d="M3004.7,-174.13C3027.48,-214.61 3082.6,-312.55 3109.39,-360.14"/>
<polygon fill="#000000" stroke="#000000" stroke-width="1.5" points="3106.39,-361.96 3114.35,-368.96 3112.49,-358.53 3106.39,-361.96"/>
</g>
<!-- vc5 -->
<g id="node37" class="node">
<title>vc5</title>
<path fill="none" stroke="#4876f0" stroke-width="1.2" d="M194,-1206C194,-1206 141,-1206 141,-1206 135,-1206 129,-1200 129,-1194 129,-1194 129,-1182 129,-1182 129,-1176 135,-1170 141,-1170 141,-1170 194,-1170 194,-1170 200,-1170 206,-1176 206,-1182 206,-1182 206,-1194 206,-1194 206,-1200 200,-1206 194,-1206"/>
<text text-anchor="middle" x="167.5" y="-1185.5" font-family="monospace" font-size="10.00">vc5 [t=&#45;1]</text>
</g>
<!-- vc5_f1&#45;&gt;y_f3 -->
<g id="edge32" class="edge">
<title>vc5_f1&#45;&gt;y_f3</title>
<path fill="none" stroke="#000000" stroke-width="1.5" d="M2777.07,-355.52C2787.88,-351.69 2799.45,-347.6 2810.41,-343.72"/>
<polygon fill="#000000" stroke="#000000" stroke-width="1.5" points="2811.6,-347.02 2819.86,-340.38 2809.26,-340.42 2811.6,-347.02"/>
</g>
<!-- vc7 -->
<g id="node39" class="node">
<title>vc7</title>
<path fill="none" stroke="#4876f0" stroke-width="1.2" d="M194,-1271C194,-1271 141,-1271 141,-1271 135,-1271 129,-1265 129,-1259 129,-1259 129,-1247 129,-1247 129,-1241 135,-1235 141,-1235 141,-1235 194,-1235 194,-1235 200,-1235 206,-1241 206,-1247 206,-1247 206,-1259 206,-1259 206,-1265 200,-1271 194,-1271"/>
<text text-anchor="middle" x="167.5" y="-1250.5" font-family="monospace" font-size="10.00">vc7 [t=&#45;1]</text>
</g>
<!-- vc7_f1&#45;&gt;y_f2 -->
<g id="edge33" class="edge">
<title>vc7_f1&#45;&gt;y_f2</title>
<path fill="none" stroke="#000000" stroke-width="1.5" d="M2492.18,-142.18C2512.3,-156.42 2540.47,-176.35 2562.47,-191.92"/>
<polygon fill="#000000" stroke="#000000" stroke-width="1.5" points="2560.68,-194.94 2570.87,-197.86 2564.73,-189.23 2560.68,-194.94"/>
</g>
<!-- vl -->
<g id="node41" class="node">
<title>vl</title>
<path fill="none" stroke="#4876f0" stroke-width="1.2" d="M191,-1336C191,-1336 144,-1336 144,-1336 138,-1336 132,-1330 132,-1324 132,-1324 132,-1312 132,-1312 132,-1306 138,-1300 144,-1300 144,-1300 191,-1300 191,-1300 197,-1300 203,-1306 203,-1312 203,-1312 203,-1324 203,-1324 203,-1330 197,-1336 191,-1336"/>
<text text-anchor="middle" x="167.5" y="-1315.5" font-family="monospace" font-size="10.00">vl [t=&#45;1]</text>
</g>
<!-- y -->
<g id="node42" class="node">
<title>y</title>
<path fill="none" stroke="#4876f0" stroke-width="1.2" d="M188,-1401C188,-1401 147,-1401 147,-1401 141,-1401 135,-1395 135,-1389 135,-1389 135,-1377 135,-1377 135,-1371 141,-1365 147,-1365 147,-1365 188,-1365 188,-1365 194,-1365 200,-1371 200,-1377 200,-1377 200,-1389 200,-1389 200,-1395 194,-1401 188,-1401"/>
<text text-anchor="middle" x="167.5" y="-1380.5" font-family="monospace" font-size="10.00">y [t=&#45;1]</text>
</g>
<!-- y_f1&#45;&gt;y_f2 -->
<g id="edge34" class="edge">
<title>y_f1&#45;&gt;y_f2</title>
<path fill="none" stroke="#000000" stroke-width="1.5" d="M2375.15,-243.04C2421.04,-237.43 2495.78,-228.3 2545.54,-222.22"/>
<polygon fill="#000000" stroke="#000000" stroke-width="1.5" points="2546.25,-225.66 2555.75,-220.98 2545.4,-218.71 2546.25,-225.66"/>
</g>
<!-- y_f2&#45;&gt;y_f3 -->
<g id="edge35" class="edge">
<title>y_f2&#45;&gt;y_f3</title>
<path fill="none" stroke="#000000" stroke-width="1.5" d="M2639.12,-231.8C2675.43,-246.06 2730.01,-267.84 2777,-288 2788.44,-292.91 2800.67,-298.36 2812.15,-303.56"/>
<polygon fill="#000000" stroke="#000000" stroke-width="1.5" points="2811.02,-306.9 2821.58,-307.86 2813.93,-300.53 2811.02,-306.9"/>
</g>
<!-- y_f3&#45;&gt;y_f4 -->
<g id="edge36" class="edge">
<title>y_f3&#45;&gt;y_f4</title>
<path fill="none" stroke="#000000" stroke-width="1.5" d="M2903.15,-335.46C2949.14,-346.17 3024.09,-363.62 3073.85,-375.21"/>
<polygon fill="#000000" stroke="#000000" stroke-width="1.5" points="3073.22,-378.65 3083.75,-377.51 3074.81,-371.84 3073.22,-378.65"/>
</g>
<!-- y_f4&#45;&gt;y_f5 -->
<g id="edge37" class="edge">
<title>y_f4&#45;&gt;y_f5</title>
<path fill="none" stroke="#000000" stroke-width="1.5" d="M3167.1,-397.15C3177.59,-399.77 3189.02,-402.63 3199.95,-405.36"/>
<polygon fill="#000000" stroke="#000000" stroke-width="1.5" points="3199.26,-408.8 3209.81,-407.83 3200.95,-402.01 3199.26,-408.8"/>
</g>
<!-- y_f5&#45;&gt;tmp_f1 -->
<g id="edge38" class="edge">
<title>y_f5&#45;&gt;tmp_f1</title>
<path fill="none" stroke="#000000" stroke-width="1.5" d="M3274.26,-399.92C3295.82,-382.01 3329,-354.45 3352.94,-334.56"/>
<polygon fill="#000000" stroke="#000000" stroke-width="1.5" points="3355.21,-337.22 3360.67,-328.14 3350.74,-331.83 3355.21,-337.22"/>
</g>
</g>
</svg>
